<?xml version="1.0" encoding="UTF-8"?>
<!-- Generator: Adobe Illustrator 18.1.0, SVG Export Plug-In . SVG Version: 6.00 Build 0)  -->
<!DOCTYPE svg PUBLIC "-//W3C//DTD SVG 1.1//EN" "http://www.w3.org/Graphics/SVG/1.1/DTD/svg11.dtd">
<svg version="1.1" id="Layer_1" xmlns="http://www.w3.org/2000/svg" xmlns:xlink="http://www.w3.org/1999/xlink" x="0px" y="0px" viewBox="0 0 145.4 77.4" enable-background="new 0 0 145.4 77.4" xml:space="preserve">
<g>
	<g>
		<path fill="#ED1C24" d="M118.4,58.4c9.6,0,17.4-7.8,17.4-17.4V19.1c0-9.6-7.8-17.4-17.4-17.4H25.7C16,1.7,8.2,9.5,8.2,19.1V41    c0,9.6,7.8,17.4,17.4,17.4H118.4z"/>
		<path fill="#FFFFFF" d="M118.4,59.2H25.7c-10,0-18.2-8.2-18.2-18.2V19.1c0-10,8.2-18.2,18.2-18.2h92.8c10,0,18.2,8.2,18.2,18.2V41    C136.6,51.1,128.5,59.2,118.4,59.2z M25.7,2.5C16.5,2.5,9,9.9,9,19.1V41c0,9.2,7.5,16.6,16.6,16.6h92.8c9.2,0,16.6-7.5,16.6-16.6    V19.1c0-9.2-7.5-16.6-16.6-16.6H25.7z"/>
	</g>
	<path fill="#FFFFFF" d="M116,50.6c6.6,0,11.9-5.3,11.9-11.9V21.5c0-6.6-5.3-11.9-11.9-11.9H28.1c-6.6,0-11.9,5.3-11.9,11.9v17.2   c0,6.6,5.3,11.9,11.9,11.9H116z"/>
	<path stroke="#000000" stroke-width="0" stroke-linecap="square" stroke-miterlimit="2" d="M47.2,13.3l3.6,12.9l3.5,12.6l0.3,0.1   l5,0l0.1-0.2l-0.1-18.1c-1-0.2-1.9-0.1-3-0.1c-0.1-2.4-0.1-4.6-0.1-7.1l0.1-0.1l21.8,0c3.2,0.4,6.7,1.2,8.5,4.4   c1.7,2.8,2,6.9,0.2,9.8c-0.8,1.4-2.3,2.6-3.7,3.4c1.6,0.3,2.8,1.9,3,3.4c0.2,1.5-0.3,3.4,1.4,4.3c0.9,0.5,2,0.4,3,0.5h3.4v0   c0.2-0.2,0.8,0.2,0.9-0.3l0-15.8v-2.2l-0.3-0.2l-2.6,0l-0.1-0.3l0.1-6.9h8.4l11,0.1c4,0.2,8.1,2.7,9.4,6.6c0.8,2.8,0.2,6-2.2,7.9   c-0.8,0.8-1.8,1.1-2.7,1.6c2.5,0.4,4.9,2,6.2,4.3c1.3,2.4,1.1,5.8-0.4,8.1c-1.9,2.9-5.1,4.4-8.4,4.5h-11.6l-20.8-0.1   c-1.5,0.1-2.9-0.3-4-1.3c-2.6-2.7-0.2-7.6-2-10.6c-1.1-1.4-2.8-0.9-4.4-0.9C71,35.4,71,37.1,71,38.8c0.9,0.1,2,0,2.9,0.1l0.1,0.3   l0,7.2l-0.1,0.1H39.3l-0.1-0.1l0-7.2l0.1-0.2l2.4-0.1l0.1-0.1c-0.2-1.1-0.4-2.1-0.7-3.1c-2.2-0.1-4.7,0-6.8-0.1   c-0.5,0.7-0.4,1.4-0.2,2.2c0.5,1.1,1.7,1.1,2.7,1.2l0.1,0.1v7.3l-13.7,0.1L23,46.4c-0.1-2.2-0.1-5,0-7.3l0.1-0.1   c1.2,0,2.3-0.2,3-1.1c0.9-1,1.2-2.3,1.6-3.5l4.1-13.1c-0.1-0.2,0.4-0.8-0.1-0.8h-3.7l-0.1-0.3l0.1-6.8l0.1-0.1l2.6-0.1l14,0.1   L47.2,13.3z"/>
	<path fill="#FFFFFF" d="M76.3,22.2c0.4,1.5,0.3,2.9-0.6,4.2c-1.4,1.3-3.1,0.7-4.7,0.9l-0.1-0.1c0-2.4,0-4.2,0.1-6.5   C72.8,20.8,75.5,19.8,76.3,22.2z"/>
	<path fill="#FFFFFF" d="M110.6,21.4c0.5,0.6,0.8,1.4,0.7,2.3c-0.1,0.7-0.4,1.4-1,1.9c-1.1,0.8-2.4,0.6-3.8,0.6   c-0.1-1.6,0-3.7,0-5.4C107.9,20.8,109.6,20.4,110.6,21.4z"/>
	<path fill="#FFFFFF" d="M39.4,29.1c-1.3,0-2.3,0.2-3.5,0.1l0-0.5l1.9-6.5C38.4,24.5,39,26.8,39.4,29.1z"/>
	<path fill="#FFFFFF" d="M111.4,34.2c0.5,0.8,0.6,2.2,0.2,3.1c-0.3,0.9-1.2,1.6-2.2,1.6c-1,0.1-2,0.1-3,0c-0.1-1.9,0-3.9-0.1-5.8   c0.1-0.2,0.3,0,0.4-0.1C108.5,33,110.6,32.5,111.4,34.2z"/>
</g>
<g>
	<path fill="#FFFFFF" d="M0.9,71.8l4.4-5.9h4.6v5.8l1.4-0.1v3l-1.5-0.1l0.1,2.2H6.2l0.1-2.2l-5.5,0.1V71.8z M4.5,71.7L4.5,71.7   l1.9,0v-1.6c0-0.3,0.1-0.6,0.2-0.9l-0.1-0.1c-0.2,0.3-0.4,0.6-0.6,0.9L4.5,71.7z"/>
	<path fill="#FFFFFF" d="M23.2,65.9l-3.4,5l3.8,5.7h-4.5L18,74.4c-0.1-0.2-0.2-0.4-0.2-0.7h-0.1c-0.1,0.3-0.2,0.5-0.3,0.7l-1.2,2.2   h-4.5l3.8-5.7l-3.4-5h4.4l0.8,1.5c0.2,0.3,0.2,0.6,0.3,0.9h0.1c0.1-0.3,0.2-0.6,0.3-0.9l0.7-1.5H23.2z"/>
	<path fill="#FFFFFF" d="M24.1,71.8l4.4-5.9h4.6v5.8l1.4-0.1v3L33,74.5l0.1,2.2h-3.7l0.1-2.2l-5.5,0.1V71.8z M27.6,71.7L27.6,71.7   l1.9,0v-1.6c0-0.3,0.1-0.6,0.2-0.9l-0.1-0.1c-0.2,0.3-0.4,0.6-0.6,0.9L27.6,71.7z"/>
	<path fill="#FFFFFF" d="M44.6,76.7h-4.1l3.7-10.8h4.3l3.8,10.8h-4.1l-0.4-1.3h-3L44.6,76.7z M47.2,72.8l-0.5-1.9   c-0.1-0.5-0.2-0.9-0.3-1.4h-0.1l-0.7,3.3H47.2z"/>
	<path fill="#FFFFFF" d="M60.9,70.3c-0.6-0.6-1.4-1.1-2.3-1.1c-1.2,0-2.1,0.9-2.1,2.1c0,1.2,1,2.1,2.2,2.1c0.9,0,1.6-0.4,2.2-1   l-0.1,4c-0.6,0.3-2.1,0.4-2.8,0.4c-3.1,0-5.5-2.4-5.5-5.5c0-3.1,2.5-5.7,5.6-5.7c0.9,0,1.8,0.2,2.6,0.4L60.9,70.3z"/>
	<path fill="#FFFFFF" d="M70,70.3c-0.6-0.6-1.4-1.1-2.3-1.1c-1.2,0-2.1,0.9-2.1,2.1c0,1.2,1,2.1,2.2,2.1c0.9,0,1.6-0.4,2.2-1l-0.1,4   c-0.6,0.3-2.1,0.4-2.8,0.4c-3.1,0-5.5-2.4-5.5-5.5c0-3.1,2.5-5.7,5.6-5.7c0.9,0,1.8,0.2,2.6,0.4L70,70.3z"/>
	<path fill="#FFFFFF" d="M71,65.9h7.2v2.9H75v1h3v2.8h-3v1.1h3.4v2.9H71V65.9z"/>
	<path fill="#FFFFFF" d="M80.3,72.8l0.2,0.2c0.7,0.5,1.5,1,2.4,1c0.4,0,1-0.2,1-0.6c0-0.5-0.5-0.5-0.9-0.6l-0.8-0.1   c-1.5-0.3-2.8-1.2-2.8-2.9c0-2.6,2.3-4,4.7-4c1.2,0,2.4,0.3,3.4,0.9l-1.1,2.8c-0.7-0.5-1.4-0.8-2.3-0.8c-0.3,0-0.8,0.1-0.8,0.6   c0,0.4,0.5,0.5,0.8,0.5l0.9,0.2c1.7,0.4,2.9,1.3,2.9,3.1c0,2.6-2.3,3.8-4.7,3.8c-1.4,0-2.9-0.4-4.1-1L80.3,72.8z"/>
	<path fill="#FFFFFF" d="M89.5,72.8l0.2,0.2c0.7,0.5,1.5,1,2.4,1c0.4,0,1-0.2,1-0.6c0-0.5-0.5-0.5-0.9-0.6l-0.8-0.1   c-1.5-0.3-2.8-1.2-2.8-2.9c0-2.6,2.3-4,4.7-4c1.2,0,2.4,0.3,3.4,0.9l-1.1,2.8c-0.7-0.5-1.4-0.8-2.3-0.8c-0.3,0-0.8,0.1-0.8,0.6   c0,0.4,0.5,0.5,0.8,0.5l0.9,0.2c1.7,0.4,2.9,1.3,2.9,3.1c0,2.6-2.3,3.8-4.7,3.8c-1.4,0-2.9-0.4-4.1-1L89.5,72.8z"/>
	<path fill="#FFFFFF" d="M109.6,71.3c0,3.5-2.7,5.5-6,5.5c-3.3,0-6-2.1-6-5.5c0-3.4,2.7-5.6,6-5.6C106.9,65.7,109.6,67.9,109.6,71.3   z M101.6,71.4c0,1.2,0.8,2.1,2,2.1s2-0.8,2-2.1c0-1.1-0.8-2.1-2-2.1S101.6,70.2,101.6,71.4z"/>
	<path fill="#FFFFFF" d="M110.7,65.9h4.7c2.4,0,4.5,1,4.5,3.7c0,1.6-0.6,2.3-2.1,2.8v0.1c0.2,0.2,0.4,0.3,0.7,0.6l2.3,3.5h-4.5   l-1.7-3.5h-0.1v3.5h-3.8V65.9z M114.5,70.7h0.3c0.6,0,1.3-0.1,1.3-0.9c0-0.8-0.6-0.9-1.3-0.9h-0.3V70.7z"/>
	<path fill="#FFFFFF" d="M121.2,65.9h3.9v10.8h-3.9V65.9z"/>
	<path fill="#FFFFFF" d="M126.6,65.9h7.2v2.9h-3.3v1h3v2.8h-3v1.1h3.4v2.9h-7.4V65.9z"/>
	<path fill="#FFFFFF" d="M135.9,72.8l0.2,0.2c0.7,0.5,1.5,1,2.4,1c0.4,0,1-0.2,1-0.6c0-0.5-0.5-0.5-0.9-0.6l-0.8-0.1   c-1.5-0.3-2.8-1.2-2.8-2.9c0-2.6,2.3-4,4.7-4c1.2,0,2.4,0.3,3.4,0.9l-1.1,2.8c-0.7-0.5-1.4-0.8-2.3-0.8c-0.3,0-0.8,0.1-0.8,0.6   c0,0.4,0.5,0.5,0.8,0.5l0.9,0.2c1.7,0.4,2.9,1.3,2.9,3.1c0,2.6-2.3,3.8-4.7,3.8c-1.4,0-2.9-0.4-4.1-1L135.9,72.8z"/>
</g>
</svg>