<?xml version="1.0" encoding="UTF-8"?>
<!-- Generator: Adobe Illustrator 17.1.0, SVG Export Plug-In . SVG Version: 6.00 Build 0)  -->
<!DOCTYPE svg PUBLIC "-//W3C//DTD SVG 1.1//EN" "http://www.w3.org/Graphics/SVG/1.1/DTD/svg11.dtd">
<svg version="1.1" id="Layer_1" xmlns="http://www.w3.org/2000/svg" xmlns:xlink="http://www.w3.org/1999/xlink" x="0px" y="0px" viewBox="0 0 18 8" preserveAspectRatio="none" style="enable-background:new 0 0 18 8;" xml:space="preserve">
<style type="text/css">
	.st0{fill:#FF7BAC;}
	.st1{fill:#ED1C24;}
	.st2{fill:#FFFFFF;}
	.st3{stroke:#000000;stroke-width:0;stroke-linecap:square;stroke-miterlimit:2;}
	.st4{fill-rule:evenodd;clip-rule:evenodd;fill:#E7473A;}
	.st5{fill-rule:evenodd;clip-rule:evenodd;fill:#5E5E5E;}
</style>
<g>
	<path class="st2" d="M4.7,8C4.1,8,3.5,7.9,3,7.7C2.6,7.5,2.1,7.2,1.8,6.9C1.4,6.5,1.1,6.1,0.9,5.6C0.7,5.1,0.6,4.6,0.6,4v0   c0-0.5,0.1-1.1,0.3-1.5C1.1,2,1.4,1.6,1.8,1.2c0.4-0.4,0.8-0.6,1.3-0.9S4.1,0,4.7,0C5,0,5.3,0,5.6,0.1c0.3,0,0.5,0.1,0.8,0.2   c0.2,0.1,0.5,0.2,0.7,0.3c0.2,0.1,0.4,0.3,0.6,0.5L6.6,2.4C6.5,2.2,6.3,2.1,6.2,2C6.1,1.9,5.9,1.9,5.7,1.8C5.6,1.7,5.4,1.7,5.2,1.6   S4.8,1.6,4.6,1.6C4.3,1.6,4,1.6,3.8,1.8C3.5,1.9,3.3,2.1,3.1,2.3C2.9,2.5,2.7,2.8,2.6,3.1C2.5,3.3,2.4,3.7,2.4,4v0   c0,0.4,0.1,0.7,0.2,1c0.1,0.3,0.3,0.6,0.5,0.8C3.3,6,3.5,6.1,3.8,6.3c0.3,0.1,0.6,0.2,0.9,0.2c0.6,0,1.2-0.2,1.6-0.5V4.9H4.6V3.4H8   v3.3C7.6,7.1,7.1,7.4,6.6,7.6S5.4,8,4.7,8z"/>
	<path class="st2" d="M13.5,8c-0.6,0-1.1-0.1-1.6-0.3s-0.9-0.5-1.3-0.8C10.2,6.5,9.9,6,9.7,5.6C9.5,5.1,9.4,4.6,9.4,4v0   c0-0.5,0.1-1.1,0.3-1.5c0.2-0.5,0.5-0.9,0.9-1.3c0.4-0.4,0.8-0.6,1.3-0.9S12.9,0,13.5,0c0.6,0,1.1,0.1,1.6,0.3   c0.5,0.2,0.9,0.5,1.3,0.8c0.4,0.4,0.6,0.8,0.8,1.3s0.3,1,0.3,1.5v0c0,0.6-0.1,1.1-0.3,1.5C17,6,16.8,6.4,16.4,6.8   c-0.4,0.4-0.8,0.6-1.3,0.9C14.6,7.9,14.1,8,13.5,8z M13.5,6.4c0.3,0,0.6-0.1,0.9-0.2c0.3-0.1,0.5-0.3,0.7-0.5   c0.2-0.2,0.4-0.5,0.5-0.8c0.1-0.3,0.2-0.6,0.2-0.9v0c0-0.3-0.1-0.6-0.2-0.9c-0.1-0.3-0.3-0.5-0.5-0.8c-0.2-0.2-0.5-0.4-0.7-0.5   c-0.3-0.1-0.6-0.2-0.9-0.2c-0.3,0-0.7,0.1-0.9,0.2c-0.3,0.1-0.5,0.3-0.7,0.5c-0.2,0.2-0.4,0.5-0.5,0.8c-0.1,0.3-0.2,0.6-0.2,0.9v0   c0,0.3,0.1,0.6,0.2,0.9c0.1,0.3,0.3,0.5,0.5,0.8s0.5,0.4,0.7,0.5C12.8,6.4,13.1,6.4,13.5,6.4z"/>
</g>
</svg>