<?xml version="1.0" encoding="UTF-8"?>
<!-- Generator: Adobe Illustrator 18.0.0, SVG Export Plug-In . SVG Version: 6.00 Build 0)  -->
<!DOCTYPE svg PUBLIC "-//W3C//DTD SVG 1.1//EN" "http://www.w3.org/Graphics/SVG/1.1/DTD/svg11.dtd">
<svg version="1.1" id="Layer_1" xmlns="http://www.w3.org/2000/svg" xmlns:xlink="http://www.w3.org/1999/xlink" x="0px" y="0px" viewBox="0 0 28 14" enable-background="new 0 0 28 14" xml:space="preserve">
<rect x="-0.1" fill="#21409A" width="28.1" height="14"/>
<g>
	<polygon fill="#FBB040" points="13.9,0.9 14.2,1.4 14.8,1.5 14.4,1.9 14.5,2.5 13.9,2.2 13.3,2.5 13.4,1.9 13,1.5 13.6,1.4  "/>
	<polygon fill="#FBB040" points="13.9,11 14.2,11.5 14.8,11.6 14.4,12 14.5,12.7 13.9,12.4 13.3,12.7 13.4,12 13,11.6 13.6,11.5     "/>
	<polygon fill="#FBB040" points="11.4,1.5 11.6,2 12.2,2.1 11.8,2.6 11.9,3.2 11.4,2.9 10.8,3.2 10.9,2.6 10.4,2.1 11.1,2  "/>
	<polygon fill="#FBB040" points="16.6,10.3 16.9,10.9 17.5,11 17.1,11.4 17.2,12 16.6,11.7 16.1,12 16.2,11.4 15.7,11 16.4,10.9     "/>
	<polygon fill="#FBB040" points="8.4,4 9.1,4 9.4,3.3 9.7,3.9 10.2,4 9.8,4.4 9.9,5 9.4,4.8 8.8,5 8.9,4.4  "/>
	<polygon fill="#FBB040" points="17.6,9.1 18.2,9 18.4,8.4 18.7,9 19.4,9 18.9,9.5 19.1,10 18.5,9.9 18,10.1 18.1,9.5  "/>
	<polygon fill="#FBB040" points="7.8,6.6 8.4,6.5 8.7,6 9,6.5 9.6,6.6 9.1,7 9.2,7.6 8.6,7.3 8,7.6 8.2,7  "/>
	<polygon fill="#FBB040" points="18.2,6.6 18.9,6.5 19.2,6 19.5,6.5 20.1,6.6 19.7,7 19.8,7.6 19.2,7.3 18.6,7.6 18.7,7  "/>
	<polygon fill="#FBB040" points="8.8,10.1 8.9,9.5 8.4,9.1 9.1,9 9.3,8.4 9.7,9 10.2,9 9.8,9.5 9.9,10 9.4,9.8  "/>
	<polygon fill="#FBB040" points="18,5 18.1,4.4 17.6,4 18.2,4 18.4,3.3 18.7,3.9 19.4,4 18.9,4.4 19.1,5 18.5,4.8  "/>
	<polygon fill="#FBB040" points="10.7,12 10.8,11.4 10.3,11 11,10.9 11.3,10.3 11.5,10.9 12.2,11 11.7,11.3 11.8,12 11.3,11.7  "/>
	<polygon fill="#FBB040" points="16,3.1 16.1,2.6 15.6,2.1 16.3,2 16.5,1.5 16.8,2 17.5,2.1 17,2.6 17.1,3.2 16.5,2.9  "/>
</g>
</svg>