<?xml version="1.0" encoding="UTF-8"?>
<!-- Generator: Adobe Illustrator 17.1.0, SVG Export Plug-In . SVG Version: 6.00 Build 0)  -->
<!DOCTYPE svg PUBLIC "-//W3C//DTD SVG 1.1//EN" "http://www.w3.org/Graphics/SVG/1.1/DTD/svg11.dtd">
<svg version="1.1" id="Layer_1" xmlns="http://www.w3.org/2000/svg" xmlns:xlink="http://www.w3.org/1999/xlink" x="0px" y="0px" viewBox="0 0 28 14" preserveAspectRatio="none" style="enable-background:new 0 0 28 14;" xml:space="preserve">
<style type="text/css">
	.st0{fill-rule:evenodd;clip-rule:evenodd;fill:#FFFFFF;}
	.st1{fill-rule:evenodd;clip-rule:evenodd;fill:#EF3E33;}
	.st2{fill-rule:evenodd;clip-rule:evenodd;fill:#004FA3;}
	.st3{fill:#FFFFFF;}
	.st4{fill:#B22234;}
	.st5{fill:#3C3B6E;}
	.st6{fill:#ED1C24;}
	.st7{fill:#241D4F;}
	.st8{fill:#002B7F;}
	.st9{fill:#E8112D;}
</style>
<rect x="0" y="0" class="st3" width="28" height="14"/>
<g>
	<rect id="stripe" x="0" y="0" class="st4" width="28" height="1"/>
</g>
<g>
	<rect id="stripe_7_" x="0" y="1" class="st3" width="28" height="1"/>
</g>
<g>
	<rect id="stripe_8_" x="0" y="2" class="st4" width="28" height="1"/>
</g>
<g>
	<rect id="stripe_9_" x="0" y="3" class="st3" width="28" height="1"/>
</g>
<g>
	<rect id="stripe_10_" x="0" y="4" class="st4" width="28" height="1"/>
</g>
<g>
	<rect id="stripe_11_" x="0" y="5" class="st3" width="28" height="1"/>
</g>
<g>
	<rect id="stripe_12_" x="0" y="6" class="st4" width="28" height="1"/>
</g>
<g>
	<rect id="stripe_13_" x="0" y="7" class="st3" width="28" height="1"/>
</g>
<g>
	<rect id="stripe_14_" x="0" y="8" class="st4" width="28" height="1"/>
</g>
<g>
	<rect id="stripe_15_" x="0" y="9" class="st3" width="28" height="1"/>
</g>
<g>
	<rect id="stripe_16_" x="0" y="10" class="st4" width="28" height="1"/>
</g>
<g>
	<rect id="stripe_17_" x="0" y="11" class="st3" width="28" height="1"/>
</g>
<g>
	<rect id="stripe_18_" x="0" y="12" class="st4" width="28" height="1"/>
</g>
<g>
	<rect id="stripe_19_" x="0" y="13" class="st3" width="28" height="1"/>
</g>
<g>
	<rect x="0" y="0" class="st5" width="10.4" height="7"/>
	<g>
		<polygon class="st3" points="0.889,0.292 0.795,0.568 0.489,0.568 0.736,0.739 0.642,1.016 0.889,0.845 1.137,1.016 1.043,0.739     1.29,0.568 0.984,0.568   "/>
		<polygon class="st3" points="2.614,0.292 2.519,0.568 2.213,0.568 2.461,0.739 2.366,1.016 2.614,0.845 2.861,1.016 2.767,0.739     3.015,0.568 2.708,0.568   "/>
		<polygon class="st3" points="4.338,0.292 4.243,0.568 3.937,0.568 4.185,0.739 4.09,1.016 4.338,0.845 4.586,1.016 4.491,0.739     4.739,0.568 4.433,0.568   "/>
		<polygon class="st3" points="6.062,0.292 5.967,0.568 5.661,0.568 5.909,0.739 5.814,1.016 6.062,0.845 6.31,1.016 6.215,0.739     6.463,0.568 6.157,0.568   "/>
		<polygon class="st3" points="7.786,0.292 7.692,0.568 7.385,0.568 7.633,0.739 7.539,1.016 7.786,0.845 8.034,1.016 7.939,0.739     8.187,0.568 7.881,0.568   "/>
		<polygon class="st3" points="9.357,0.739 9.263,1.016 9.511,0.845 9.758,1.016 9.664,0.739 9.911,0.568 9.605,0.568 9.511,0.292     9.416,0.568 9.11,0.568   "/>
		<polygon class="st3" points="1.846,1.27 1.752,0.994 1.657,1.27 1.351,1.27 1.598,1.441 1.504,1.718 1.752,1.547 1.999,1.718     1.905,1.441 2.152,1.27   "/>
		<polygon class="st3" points="3.57,1.27 3.476,0.994 3.381,1.27 3.075,1.27 3.323,1.441 3.228,1.718 3.476,1.547 3.724,1.718     3.629,1.441 3.877,1.27   "/>
		<polygon class="st3" points="5.295,1.27 5.2,0.994 5.105,1.27 4.799,1.27 5.047,1.441 4.952,1.718 5.2,1.547 5.448,1.718     5.353,1.441 5.601,1.27   "/>
		<polygon class="st3" points="7.019,1.27 6.924,0.994 6.83,1.27 6.523,1.27 6.771,1.441 6.676,1.718 6.924,1.547 7.172,1.718     7.077,1.441 7.325,1.27   "/>
		<polygon class="st3" points="8.743,1.27 8.648,0.994 8.554,1.27 8.248,1.27 8.495,1.441 8.401,1.718 8.648,1.547 8.896,1.718     8.802,1.441 9.049,1.27   "/>
		<polygon class="st3" points="0.984,1.972 0.889,1.696 0.795,1.972 0.489,1.972 0.736,2.143 0.642,2.42 0.889,2.249 1.137,2.42     1.043,2.143 1.29,1.972   "/>
		<polygon class="st3" points="2.708,1.972 2.614,1.696 2.519,1.972 2.213,1.972 2.461,2.143 2.366,2.42 2.614,2.249 2.861,2.42     2.767,2.143 3.015,1.972   "/>
		<polygon class="st3" points="4.433,1.972 4.338,1.696 4.243,1.972 3.937,1.972 4.185,2.143 4.09,2.42 4.338,2.249 4.586,2.42     4.491,2.143 4.739,1.972   "/>
		<polygon class="st3" points="6.157,1.972 6.062,1.696 5.967,1.972 5.661,1.972 5.909,2.143 5.814,2.42 6.062,2.249 6.31,2.42     6.215,2.143 6.463,1.972   "/>
		<polygon class="st3" points="7.881,1.972 7.786,1.696 7.692,1.972 7.385,1.972 7.633,2.143 7.539,2.42 7.786,2.249 8.034,2.42     7.939,2.143 8.187,1.972   "/>
		<polygon class="st3" points="9.605,1.972 9.511,1.696 9.416,1.972 9.11,1.972 9.357,2.143 9.263,2.42 9.511,2.249 9.758,2.42     9.664,2.143 9.911,1.972   "/>
	</g>
	<g>
		<polygon class="st3" points="1.846,2.674 1.752,2.398 1.657,2.674 1.351,2.674 1.598,2.845 1.504,3.122 1.752,2.951 1.999,3.122     1.905,2.845 2.152,2.674   "/>
		<polygon class="st3" points="3.57,2.674 3.476,2.398 3.381,2.674 3.075,2.674 3.323,2.845 3.228,3.122 3.476,2.951 3.724,3.122     3.629,2.845 3.877,2.674   "/>
		<polygon class="st3" points="5.295,2.674 5.2,2.398 5.105,2.674 4.799,2.674 5.047,2.845 4.952,3.122 5.2,2.951 5.448,3.122     5.353,2.845 5.601,2.674   "/>
		<polygon class="st3" points="7.019,2.674 6.924,2.398 6.83,2.674 6.523,2.674 6.771,2.845 6.676,3.122 6.924,2.951 7.172,3.122     7.077,2.845 7.325,2.674   "/>
		<polygon class="st3" points="8.743,2.674 8.648,2.398 8.554,2.674 8.248,2.674 8.495,2.845 8.401,3.122 8.648,2.951 8.896,3.122     8.802,2.845 9.049,2.674   "/>
		<polygon class="st3" points="0.984,3.376 0.889,3.1 0.795,3.376 0.489,3.376 0.736,3.547 0.642,3.824 0.889,3.653 1.137,3.824     1.043,3.547 1.29,3.376   "/>
		<polygon class="st3" points="2.708,3.376 2.614,3.1 2.519,3.376 2.213,3.376 2.461,3.547 2.366,3.824 2.614,3.653 2.861,3.824     2.767,3.547 3.015,3.376   "/>
		<polygon class="st3" points="4.433,3.376 4.338,3.1 4.243,3.376 3.937,3.376 4.185,3.547 4.09,3.824 4.338,3.653 4.586,3.824     4.491,3.547 4.739,3.376   "/>
		<polygon class="st3" points="6.157,3.376 6.062,3.1 5.967,3.376 5.661,3.376 5.909,3.547 5.814,3.824 6.062,3.653 6.31,3.824     6.215,3.547 6.463,3.376   "/>
		<polygon class="st3" points="7.881,3.376 7.786,3.1 7.692,3.376 7.385,3.376 7.633,3.547 7.539,3.824 7.786,3.653 8.034,3.824     7.939,3.547 8.187,3.376   "/>
		<polygon class="st3" points="9.605,3.376 9.511,3.1 9.416,3.376 9.11,3.376 9.357,3.547 9.263,3.824 9.511,3.653 9.758,3.824     9.664,3.547 9.911,3.376   "/>
	</g>
	<g>
		<polygon class="st3" points="1.846,4.064 1.752,3.787 1.657,4.064 1.351,4.064 1.598,4.234 1.504,4.511 1.752,4.34 1.999,4.511     1.905,4.234 2.152,4.064   "/>
		<polygon class="st3" points="3.57,4.064 3.476,3.787 3.381,4.064 3.075,4.064 3.323,4.234 3.228,4.511 3.476,4.34 3.724,4.511     3.629,4.234 3.877,4.064   "/>
		<polygon class="st3" points="5.295,4.064 5.2,3.787 5.105,4.064 4.799,4.064 5.047,4.234 4.952,4.511 5.2,4.34 5.448,4.511     5.353,4.234 5.601,4.064   "/>
		<polygon class="st3" points="7.019,4.064 6.924,3.787 6.83,4.064 6.523,4.064 6.771,4.234 6.676,4.511 6.924,4.34 7.172,4.511     7.077,4.234 7.325,4.064   "/>
		<polygon class="st3" points="8.743,4.064 8.648,3.787 8.554,4.064 8.248,4.064 8.495,4.234 8.401,4.511 8.648,4.34 8.896,4.511     8.802,4.234 9.049,4.064   "/>
		<polygon class="st3" points="0.984,4.766 0.889,4.489 0.795,4.766 0.489,4.766 0.736,4.936 0.642,5.213 0.889,5.042 1.137,5.213     1.043,4.936 1.29,4.766   "/>
		<polygon class="st3" points="2.708,4.766 2.614,4.489 2.519,4.766 2.213,4.766 2.461,4.936 2.366,5.213 2.614,5.042 2.861,5.213     2.767,4.936 3.015,4.766   "/>
		<polygon class="st3" points="4.433,4.766 4.338,4.489 4.243,4.766 3.937,4.766 4.185,4.936 4.09,5.213 4.338,5.042 4.586,5.213     4.491,4.936 4.739,4.766   "/>
		<polygon class="st3" points="6.157,4.766 6.062,4.489 5.967,4.766 5.661,4.766 5.909,4.936 5.814,5.213 6.062,5.042 6.31,5.213     6.215,4.936 6.463,4.766   "/>
		<polygon class="st3" points="7.881,4.766 7.786,4.489 7.692,4.766 7.385,4.766 7.633,4.936 7.539,5.213 7.786,5.042 8.034,5.213     7.939,4.936 8.187,4.766   "/>
		<polygon class="st3" points="9.605,4.766 9.511,4.489 9.416,4.766 9.11,4.766 9.357,4.936 9.263,5.213 9.511,5.042 9.758,5.213     9.664,4.936 9.911,4.766   "/>
	</g>
	<g>
		<polygon class="st3" points="1.846,5.453 1.752,5.176 1.657,5.453 1.351,5.453 1.598,5.624 1.504,5.9 1.752,5.729 1.999,5.9     1.905,5.624 2.152,5.453   "/>
		<polygon class="st3" points="3.57,5.453 3.476,5.176 3.381,5.453 3.075,5.453 3.323,5.624 3.228,5.9 3.476,5.729 3.724,5.9     3.629,5.624 3.877,5.453   "/>
		<polygon class="st3" points="5.295,5.453 5.2,5.176 5.105,5.453 4.799,5.453 5.047,5.624 4.952,5.9 5.2,5.729 5.448,5.9     5.353,5.624 5.601,5.453   "/>
		<polygon class="st3" points="7.019,5.453 6.924,5.176 6.83,5.453 6.523,5.453 6.771,5.624 6.676,5.9 6.924,5.729 7.172,5.9     7.077,5.624 7.325,5.453   "/>
		<polygon class="st3" points="8.743,5.453 8.648,5.176 8.554,5.453 8.248,5.453 8.495,5.624 8.401,5.9 8.648,5.729 8.896,5.9     8.802,5.624 9.049,5.453   "/>
		<polygon class="st3" points="0.984,6.155 0.889,5.878 0.795,6.155 0.489,6.155 0.736,6.326 0.642,6.602 0.889,6.431 1.137,6.602     1.043,6.326 1.29,6.155   "/>
		<polygon class="st3" points="2.708,6.155 2.614,5.878 2.519,6.155 2.213,6.155 2.461,6.326 2.366,6.602 2.614,6.431 2.861,6.602     2.767,6.326 3.015,6.155   "/>
		<polygon class="st3" points="4.433,6.155 4.338,5.878 4.243,6.155 3.937,6.155 4.185,6.326 4.09,6.602 4.338,6.431 4.586,6.602     4.491,6.326 4.739,6.155   "/>
		<polygon class="st3" points="6.157,6.155 6.062,5.878 5.967,6.155 5.661,6.155 5.909,6.326 5.814,6.602 6.062,6.431 6.31,6.602     6.215,6.326 6.463,6.155   "/>
		<polygon class="st3" points="7.881,6.155 7.786,5.878 7.692,6.155 7.385,6.155 7.633,6.326 7.539,6.602 7.786,6.431 8.034,6.602     7.939,6.326 8.187,6.155   "/>
		<polygon class="st3" points="9.605,6.155 9.511,5.878 9.416,6.155 9.11,6.155 9.357,6.326 9.263,6.602 9.511,6.431 9.758,6.602     9.664,6.326 9.911,6.155   "/>
	</g>
</g>
</svg>