<?xml version="1.0" encoding="UTF-8"?>
<!-- Generator: Adobe Illustrator 17.1.0, SVG Export Plug-In . SVG Version: 6.00 Build 0)  -->
<!DOCTYPE svg PUBLIC "-//W3C//DTD SVG 1.1//EN" "http://www.w3.org/Graphics/SVG/1.1/DTD/svg11.dtd">
<svg version="1.1" id="Layer_1" xmlns="http://www.w3.org/2000/svg" xmlns:xlink="http://www.w3.org/1999/xlink" x="0px" y="0px" viewBox="0 0 28 14" preserveAspectRatio="none" style="enable-background:new 0 0 28 14;" xml:space="preserve">
<style type="text/css">
	.st0{fill-rule:evenodd;clip-rule:evenodd;fill:#FFFFFF;}
	.st1{fill-rule:evenodd;clip-rule:evenodd;fill:#EF3E33;}
	.st2{fill-rule:evenodd;clip-rule:evenodd;fill:#004FA3;}
	.st3{fill:#FFFFFF;}
	.st4{fill:#B22234;}
	.st5{fill:#3C3B6E;}
	.st6{fill:#ED1C24;}
	.st7{fill:#241D4F;}
	.st8{fill:#002B7F;}
	.st9{fill:#E8112D;}
</style>
<path class="st8" d="M-0.025,0h28v14h-28V0z"/>
<g>
	<polygon class="st3" points="7.884,10.292 8.616,9.191 7.379,9.659 6.975,8.4 6.57,9.659 5.333,9.191 6.065,10.292 4.927,10.967    6.245,11.082 6.063,12.392 6.975,11.433 7.886,12.392 7.704,11.082 9.022,10.967  "/>
	<polygon class="st3" points="21.408,11.568 21.756,11.043 21.167,11.266 20.975,10.667 20.782,11.266 20.193,11.043 20.541,11.568    20,11.889 20.627,11.944 20.541,12.568 20.975,12.111 21.408,12.568 21.322,11.944 21.949,11.889  "/>
	<polygon class="st3" points="17.908,6.026 18.256,5.501 17.667,5.725 17.475,5.125 17.282,5.725 16.693,5.501 17.041,6.026    16.5,6.347 17.127,6.402 17.041,7.026 17.475,6.569 17.908,7.026 17.822,6.402 18.449,6.347  "/>
	<polygon class="st3" points="20.627,2.61 20.541,3.234 20.975,2.778 21.408,3.234 21.322,2.61 21.949,2.556 21.408,2.234    21.756,1.71 21.167,1.933 20.975,1.333 20.782,1.933 20.193,1.71 20.541,2.234 20,2.556  "/>
	<polygon class="st3" points="25.061,5.414 24.519,5.093 24.867,4.568 24.278,4.791 24.086,4.192 23.893,4.791 23.304,4.568    23.652,5.093 23.111,5.414 23.738,5.469 23.652,6.093 24.086,5.636 24.52,6.093 24.433,5.469  "/>
	<polygon class="st3" points="22.527,7.374 22.375,7 22.222,7.374 21.82,7.403 22.128,7.663 22.032,8.055 22.375,7.843    22.717,8.055 22.621,7.663 22.929,7.403  "/>
</g>
<polygon class="st3" points="13.975,0 12.409,0 8.141,2.134 8.141,0 5.808,0 5.808,2.134 1.54,0 -0.025,0 -0.025,0.783 3.076,2.333   -0.025,2.333 -0.025,4.667 3.076,4.667 -0.025,6.217 -0.025,7 1.54,7 5.808,4.866 5.808,7 8.141,7 8.141,4.866 12.409,7 13.975,7   13.975,6.217 10.873,4.667 13.975,4.667 13.975,2.333 10.873,2.333 13.975,0.783 "/>
<g>
	<polygon class="st9" points="7.675,0 6.275,0 6.275,2.8 -0.025,2.8 -0.025,4.2 6.275,4.2 6.275,7 7.675,7 7.675,4.2 13.975,4.2    13.975,2.8 7.675,2.8  "/>
	<polygon class="st9" points="4.641,2.333 -0.025,0 -0.025,0.522 3.598,2.333  "/>
	<polygon class="st9" points="13.975,0 12.931,0 8.264,2.333 9.308,2.333  "/>
	<polygon class="st9" points="-0.025,7 1.018,7 5.685,4.667 4.641,4.667  "/>
	<polygon class="st9" points="9.308,4.667 13.975,7 13.975,6.478 10.351,4.667  "/>
</g>
</svg>