<?xml version="1.0" encoding="UTF-8"?>
<!-- Generator: Adobe Illustrator 17.1.0, SVG Export Plug-In . SVG Version: 6.00 Build 0)  -->
<!DOCTYPE svg PUBLIC "-//W3C//DTD SVG 1.1//EN" "http://www.w3.org/Graphics/SVG/1.1/DTD/svg11.dtd">
<svg version="1.1" id="Layer_1" xmlns="http://www.w3.org/2000/svg" xmlns:xlink="http://www.w3.org/1999/xlink" x="0px" y="0px" viewBox="0 0 41 41" preserveAspectRatio="none" style="enable-background:new 0 0 41 41;" xml:space="preserve">
<style type="text/css">
	.st0{fill:#FF7BAC;}
	.st1{fill:#ED1C24;}
	.st2{fill:#FFFFFF;}
	.st3{stroke:#000000;stroke-width:0;stroke-linecap:square;stroke-miterlimit:2;}
	.st4{fill-rule:evenodd;clip-rule:evenodd;fill:#E7473A;}
	.st5{fill-rule:evenodd;clip-rule:evenodd;fill:#5E5E5E;}
	.st6{fill-rule:evenodd;clip-rule:evenodd;fill:#FFFFFF;}
	.st7{fill-rule:evenodd;clip-rule:evenodd;fill:#CDCDCD;}
	.st8{fill-rule:evenodd;clip-rule:evenodd;fill:#C7C6C6;}
	.st9{opacity:0.7;fill-rule:evenodd;clip-rule:evenodd;}
	.st10{fill-rule:evenodd;clip-rule:evenodd;fill:url(#SVGID_1_);}
	.st11{fill-rule:evenodd;clip-rule:evenodd;fill:url(#SVGID_2_);}
	.st12{fill-rule:evenodd;clip-rule:evenodd;fill:url(#SVGID_3_);}
	.st13{fill-rule:evenodd;clip-rule:evenodd;fill:url(#SVGID_4_);}
	.st14{fill:#4A67A2;}
	.st15{fill-rule:evenodd;clip-rule:evenodd;fill:#5ABEDD;}
	.st16{fill:#E54C44;}
	.st17{fill-rule:evenodd;clip-rule:evenodd;fill:#868585;}
	.st18{fill-rule:evenodd;clip-rule:evenodd;fill:url(#SVGID_5_);}
	.st19{fill-rule:evenodd;clip-rule:evenodd;fill:url(#SVGID_6_);}
	.st20{fill-rule:evenodd;clip-rule:evenodd;fill:url(#SVGID_7_);}
	.st21{fill-rule:evenodd;clip-rule:evenodd;fill:url(#SVGID_8_);}
	.st22{fill:#405FA1;}
	.st23{fill-rule:evenodd;clip-rule:evenodd;fill:#4DBADE;}
	.st24{fill:#E54235;}
	.st25{fill-rule:evenodd;clip-rule:evenodd;fill:#7F7E7E;}
	.st26{fill-rule:evenodd;clip-rule:evenodd;fill:url(#SVGID_9_);}
	.st27{fill-rule:evenodd;clip-rule:evenodd;fill:url(#SVGID_10_);}
	.st28{fill-rule:evenodd;clip-rule:evenodd;fill:url(#SVGID_11_);}
	.st29{fill-rule:evenodd;clip-rule:evenodd;fill:#E54C44;}
	.st30{fill-rule:evenodd;clip-rule:evenodd;fill:#4F7EA5;}
	.st31{fill-rule:evenodd;clip-rule:evenodd;fill:url(#SVGID_12_);}
	.st32{fill-rule:evenodd;clip-rule:evenodd;fill:url(#SVGID_13_);}
	.st33{fill-rule:evenodd;clip-rule:evenodd;fill:url(#SVGID_14_);}
	.st34{fill-rule:evenodd;clip-rule:evenodd;fill:url(#SVGID_15_);}
	.st35{fill-rule:evenodd;clip-rule:evenodd;fill:url(#SVGID_16_);}
</style>
<linearGradient id="SVGID_1_" gradientUnits="userSpaceOnUse" x1="20.5" y1="40.9792" x2="20.5" y2="-2.083333e-02">
	<stop offset="0" style="stop-color:#5886AD"/>
	<stop offset="1" style="stop-color:#5D8DB6"/>
</linearGradient>
<path class="st10" d="M3,0h35c1.7,0,3,1.3,3,3v35c0,1.7-1.3,3-3,3H3c-1.7,0-3-1.3-3-3V3C0,1.3,1.3,0,3,0z"/>
<g>
	<path class="st30" d="M13.7,11h15.6c1.5,0,2.7,1.2,2.7,2.7v15.6c0,1.5-1.2,2.7-2.7,2.7H13.7c-1.5,0-2.7-1.2-2.7-2.7V13.7   C11,12.2,12.2,11,13.7,11L13.7,11z M26.9,13c-0.5,0-0.9,0.4-0.9,0.9V16c0,0.5,0.4,0.9,0.9,0.9h2.2c0.5,0,0.9-0.4,0.9-0.9v-2.1   c0-0.5-0.4-0.9-0.9-0.9H26.9L26.9,13z M30,19.9h-2.2C28,20.4,28,21,28,21.7c0,3.5-2.9,6.3-6.5,6.3c-3.6,0-6.5-2.8-6.5-6.3   c0-0.6,0.1-1.2,0.3-1.8H13v9.3c0,0.5,0.4,0.8,0.8,0.8h15.3c0.5,0,0.8-0.4,0.8-0.8V19.9L30,19.9z M21.5,17.3c-2.3,0-4.2,1.8-4.2,4.1   c0,2.3,1.9,4.1,4.2,4.1s4.2-1.8,4.2-4.1C25.7,19.2,23.8,17.3,21.5,17.3z"/>
</g>
<g>
	<path class="st6" d="M12.7,10h15.6c1.5,0,2.7,1.2,2.7,2.7v15.6c0,1.5-1.2,2.7-2.7,2.7H12.7c-1.5,0-2.7-1.2-2.7-2.7V12.7   C10,11.2,11.2,10,12.7,10L12.7,10z M25.9,12c-0.5,0-0.9,0.4-0.9,0.9V15c0,0.5,0.4,0.9,0.9,0.9h2.2c0.5,0,0.9-0.4,0.9-0.9v-2.1   c0-0.5-0.4-0.9-0.9-0.9H25.9L25.9,12z M29,18.9h-2.2C27,19.4,27,20,27,20.7c0,3.5-2.9,6.3-6.5,6.3c-3.6,0-6.5-2.8-6.5-6.3   c0-0.6,0.1-1.2,0.3-1.8H12v9.3c0,0.5,0.4,0.8,0.8,0.8h15.3c0.5,0,0.8-0.4,0.8-0.8V18.9L29,18.9z M20.5,16.3c-2.3,0-4.2,1.8-4.2,4.1   c0,2.3,1.9,4.1,4.2,4.1s4.2-1.8,4.2-4.1C24.7,18.2,22.8,16.3,20.5,16.3z"/>
</g>
</svg>