<?xml version="1.0" encoding="UTF-8"?>
<!-- Generator: Adobe Illustrator 17.1.0, SVG Export Plug-In . SVG Version: 6.00 Build 0)  -->
<!DOCTYPE svg PUBLIC "-//W3C//DTD SVG 1.1//EN" "http://www.w3.org/Graphics/SVG/1.1/DTD/svg11.dtd">
<svg version="1.1" id="Layer_1" xmlns="http://www.w3.org/2000/svg" xmlns:xlink="http://www.w3.org/1999/xlink" x="0px" y="0px" viewBox="0 0 41 41" preserveAspectRatio="none" style="enable-background:new 0 0 41 41;" xml:space="preserve">
<style type="text/css">
	.st0{fill:#FF7BAC;}
	.st1{fill:#ED1C24;}
	.st2{fill:#FFFFFF;}
	.st3{stroke:#000000;stroke-width:0;stroke-linecap:square;stroke-miterlimit:2;}
	.st4{fill-rule:evenodd;clip-rule:evenodd;fill:#E7473A;}
	.st5{fill-rule:evenodd;clip-rule:evenodd;fill:#5E5E5E;}
	.st6{fill-rule:evenodd;clip-rule:evenodd;fill:#FFFFFF;}
	.st7{fill-rule:evenodd;clip-rule:evenodd;fill:#CDCDCD;}
	.st8{fill-rule:evenodd;clip-rule:evenodd;fill:#C7C6C6;}
	.st9{opacity:0.7;fill-rule:evenodd;clip-rule:evenodd;}
	.st10{fill-rule:evenodd;clip-rule:evenodd;fill:url(#SVGID_1_);}
	.st11{fill-rule:evenodd;clip-rule:evenodd;fill:url(#SVGID_2_);}
	.st12{fill-rule:evenodd;clip-rule:evenodd;fill:url(#SVGID_3_);}
	.st13{fill-rule:evenodd;clip-rule:evenodd;fill:url(#SVGID_4_);}
	.st14{fill:#4A67A2;}
	.st15{fill-rule:evenodd;clip-rule:evenodd;fill:#5ABEDD;}
	.st16{fill:#E54C44;}
	.st17{fill-rule:evenodd;clip-rule:evenodd;fill:#868585;}
	.st18{fill-rule:evenodd;clip-rule:evenodd;fill:url(#SVGID_5_);}
	.st19{fill-rule:evenodd;clip-rule:evenodd;fill:url(#SVGID_6_);}
	.st20{fill-rule:evenodd;clip-rule:evenodd;fill:url(#SVGID_7_);}
	.st21{fill-rule:evenodd;clip-rule:evenodd;fill:url(#SVGID_8_);}
	.st22{fill:#405FA1;}
	.st23{fill-rule:evenodd;clip-rule:evenodd;fill:#4DBADE;}
	.st24{fill:#E54235;}
	.st25{fill-rule:evenodd;clip-rule:evenodd;fill:#7F7E7E;}
	.st26{fill-rule:evenodd;clip-rule:evenodd;fill:url(#SVGID_9_);}
	.st27{fill-rule:evenodd;clip-rule:evenodd;fill:url(#SVGID_10_);}
	.st28{fill-rule:evenodd;clip-rule:evenodd;fill:url(#SVGID_11_);}
	.st29{fill-rule:evenodd;clip-rule:evenodd;fill:#E54C44;}
	.st30{fill-rule:evenodd;clip-rule:evenodd;fill:#4F7EA5;}
	.st31{fill-rule:evenodd;clip-rule:evenodd;fill:url(#SVGID_12_);}
	.st32{fill-rule:evenodd;clip-rule:evenodd;fill:url(#SVGID_13_);}
	.st33{fill-rule:evenodd;clip-rule:evenodd;fill:url(#SVGID_14_);}
	.st34{fill-rule:evenodd;clip-rule:evenodd;fill:url(#SVGID_15_);}
	.st35{fill-rule:evenodd;clip-rule:evenodd;fill:url(#SVGID_16_);}
</style>
<linearGradient id="SVGID_1_" gradientUnits="userSpaceOnUse" x1="20.5" y1="40.9792" x2="20.5" y2="-2.083332e-02">
	<stop offset="0" style="stop-color:#59C5E8"/>
	<stop offset="1" style="stop-color:#5ED0F4"/>
</linearGradient>
<path class="st10" d="M3,0h35c1.7,0,3,1.3,3,3v35c0,1.7-1.3,3-3,3H3c-1.7,0-3-1.3-3-3V3C0,1.3,1.3,0,3,0z"/>
<g>
	<path class="st15" d="M20.7,18.9c0.9-2.7,1.9-4.5,3.2-5.8c0.9-1,1.4-1.3,0.9-0.2c0.2-0.2,0.6-0.4,0.8-0.6c1.5-0.7,1.4-0.1,0.4,0.5   c2.8-1,2.7,0.3-0.3,0.9c2.4,0,5,1.6,5.7,4.9c0.1,0.5,0,0.4,0.4,0.5c1,0.2,1.9,0.2,2.9-0.1c-0.1,0.7-1,1.1-2.4,1.4   c-0.5,0.1-0.6,0.1,0,0.2c0.8,0.2,1.6,0.2,2.5,0.2C34.2,21.6,33,22,31.6,22c-0.9,3.2-2.8,5.4-5.4,6.9c-5.9,3.3-14.5,2.9-18.8-3.2   c2.8,2.2,7,2.7,10.1-0.4c-2,0-2.6-1.5-0.9-2.3c-1.5,0-2.5-0.5-3.1-1.4c-0.2-0.3-0.2-0.4,0.1-0.6c0.4-0.3,0.9-0.4,1.5-0.4   c-1.6-0.5-2.5-1.3-2.9-2.4c-0.1-0.4-0.1-0.3,0.2-0.4c0.4-0.1,0.8-0.1,1.3-0.2c-1.2-0.8-2-1.7-2.2-2.7c-0.2-1,0-0.7,0.7-0.4   C15.6,15.6,18.8,16.9,20.7,18.9L20.7,18.9z"/>
</g>
<g>
	<path class="st6" d="M19.7,17.9c0.9-2.7,1.9-4.5,3.2-5.8c0.9-1,1.4-1.3,0.9-0.2c0.2-0.2,0.6-0.4,0.8-0.6c1.5-0.7,1.4-0.1,0.4,0.5   c2.8-1,2.7,0.3-0.3,0.9c2.4,0,5,1.6,5.7,4.9c0.1,0.5,0,0.4,0.4,0.5c1,0.2,1.9,0.2,2.9-0.1c-0.1,0.7-1,1.1-2.4,1.4   c-0.5,0.1-0.6,0.1,0,0.2c0.8,0.2,1.6,0.2,2.5,0.2C33.2,20.6,32,21,30.6,21c-0.9,3.2-2.8,5.4-5.4,6.9c-5.9,3.3-14.5,2.9-18.8-3.2   c2.8,2.2,7,2.7,10.1-0.4c-2,0-2.6-1.5-0.9-2.3c-1.5,0-2.5-0.5-3.1-1.4c-0.2-0.3-0.2-0.4,0.1-0.6c0.4-0.3,0.9-0.4,1.5-0.4   c-1.6-0.5-2.5-1.3-2.9-2.4c-0.1-0.4-0.1-0.3,0.2-0.4c0.4-0.1,0.8-0.1,1.3-0.2c-1.2-0.8-2-1.7-2.2-2.7c-0.2-1,0-0.7,0.7-0.4   C14.6,14.6,17.8,15.9,19.7,17.9L19.7,17.9z"/>
</g>
</svg>