<?xml version="1.0" encoding="UTF-8"?>
<!-- Generator: Adobe Illustrator 17.1.0, SVG Export Plug-In . SVG Version: 6.00 Build 0)  -->
<!DOCTYPE svg PUBLIC "-//W3C//DTD SVG 1.1//EN" "http://www.w3.org/Graphics/SVG/1.1/DTD/svg11.dtd">
<svg version="1.1" id="Layer_1" xmlns="http://www.w3.org/2000/svg" xmlns:xlink="http://www.w3.org/1999/xlink" x="0px" y="0px" viewBox="0 0 16 15" preserveAspectRatio="none" style="enable-background:new 0 0 16 15;" xml:space="preserve">
<style type="text/css">
	.st0{fill:#FF7BAC;}
	.st1{fill:#ED1C24;}
	.st2{fill:#FFFFFF;}
	.st3{stroke:#000000;stroke-width:0;stroke-linecap:square;stroke-miterlimit:2;}
	.st4{fill-rule:evenodd;clip-rule:evenodd;fill:#E7473A;}
	.st5{fill-rule:evenodd;clip-rule:evenodd;fill:#5E5E5E;}
	.st6{fill-rule:evenodd;clip-rule:evenodd;fill:#808080;}
</style>
<g>
	<g>
		<path class="st2" d="M16,13.2l-3.8-3.8c0.5-0.9,0.7-1.9,0.7-3C12.9,2.9,10,0,6.4,0C2.9,0,0,2.9,0,6.4c0,3.5,2.9,6.4,6.4,6.4    c1.5,0,2.9-0.5,4-1.4l3.7,3.6L16,13.2z M2.6,6.4c0-2.1,1.7-3.8,3.8-3.8c2.1,0,3.8,1.7,3.8,3.8c0,2.1-1.7,3.8-3.8,3.8    C4.3,10.2,2.6,8.5,2.6,6.4z"/>
	</g>
</g>
</svg>