<?xml version="1.0" encoding="UTF-8"?>
<!-- Generator: Adobe Illustrator 17.1.0, SVG Export Plug-In . SVG Version: 6.00 Build 0)  -->
<!DOCTYPE svg PUBLIC "-//W3C//DTD SVG 1.1//EN" "http://www.w3.org/Graphics/SVG/1.1/DTD/svg11.dtd">
<svg version="1.1" id="Layer_1" xmlns="http://www.w3.org/2000/svg" xmlns:xlink="http://www.w3.org/1999/xlink" x="0px" y="0px" viewBox="0 0 41 41" preserveAspectRatio="none" style="enable-background:new 0 0 41 41;" xml:space="preserve">
<style type="text/css">
	.st0{fill:#FF7BAC;}
	.st1{fill:#ED1C24;}
	.st2{fill:#FFFFFF;}
	.st3{stroke:#000000;stroke-width:0;stroke-linecap:square;stroke-miterlimit:2;}
	.st4{fill-rule:evenodd;clip-rule:evenodd;fill:#E7473A;}
	.st5{fill-rule:evenodd;clip-rule:evenodd;fill:#5E5E5E;}
	.st6{fill-rule:evenodd;clip-rule:evenodd;fill:#FFFFFF;}
	.st7{fill-rule:evenodd;clip-rule:evenodd;fill:#CDCDCD;}
	.st8{fill-rule:evenodd;clip-rule:evenodd;fill:#C7C6C6;}
	.st9{opacity:0.7;fill-rule:evenodd;clip-rule:evenodd;}
	.st10{fill-rule:evenodd;clip-rule:evenodd;fill:url(#SVGID_1_);}
	.st11{fill-rule:evenodd;clip-rule:evenodd;fill:url(#SVGID_2_);}
	.st12{fill-rule:evenodd;clip-rule:evenodd;fill:url(#SVGID_3_);}
	.st13{fill-rule:evenodd;clip-rule:evenodd;fill:url(#SVGID_4_);}
	.st14{fill:#4A67A2;}
	.st15{fill-rule:evenodd;clip-rule:evenodd;fill:#5ABEDD;}
	.st16{fill:#E54C44;}
	.st17{fill-rule:evenodd;clip-rule:evenodd;fill:#868585;}
	.st18{fill-rule:evenodd;clip-rule:evenodd;fill:url(#SVGID_5_);}
	.st19{fill-rule:evenodd;clip-rule:evenodd;fill:url(#SVGID_6_);}
	.st20{fill-rule:evenodd;clip-rule:evenodd;fill:url(#SVGID_7_);}
	.st21{fill-rule:evenodd;clip-rule:evenodd;fill:url(#SVGID_8_);}
	.st22{fill:#405FA1;}
	.st23{fill-rule:evenodd;clip-rule:evenodd;fill:#4DBADE;}
	.st24{fill:#E54235;}
	.st25{fill-rule:evenodd;clip-rule:evenodd;fill:#7F7E7E;}
	.st26{fill-rule:evenodd;clip-rule:evenodd;fill:url(#SVGID_9_);}
	.st27{fill-rule:evenodd;clip-rule:evenodd;fill:url(#SVGID_10_);}
	.st28{fill-rule:evenodd;clip-rule:evenodd;fill:url(#SVGID_11_);}
	.st29{fill-rule:evenodd;clip-rule:evenodd;fill:#E54C44;}
	.st30{fill-rule:evenodd;clip-rule:evenodd;fill:#4F7EA5;}
	.st31{fill-rule:evenodd;clip-rule:evenodd;fill:url(#SVGID_12_);}
	.st32{fill-rule:evenodd;clip-rule:evenodd;fill:url(#SVGID_13_);}
	.st33{fill-rule:evenodd;clip-rule:evenodd;fill:url(#SVGID_14_);}
	.st34{fill-rule:evenodd;clip-rule:evenodd;fill:url(#SVGID_15_);}
	.st35{fill-rule:evenodd;clip-rule:evenodd;fill:url(#SVGID_16_);}
</style>
<linearGradient id="SVGID_1_" gradientUnits="userSpaceOnUse" x1="20.5" y1="41" x2="20.5" y2="-7.858034e-10">
	<stop offset="0" style="stop-color:#EF4E41"/>
	<stop offset="1" style="stop-color:#FC5244"/>
</linearGradient>
<path class="st10" d="M3,0h35c1.7,0,3,1.3,3,3v35c0,1.7-1.3,3-3,3H3c-1.7,0-3-1.3-3-3V3C0,1.3,1.3,0,3,0z"/>
<g>
	<path class="st29" d="M31.4,13.9C30,13,23.6,13,21,13c-2.6,0-9,0-10.4,0.9c-1.4,0.8-2.1,4.7-2.1,8.3h0v0h0c0.1,3.6,0.8,7.1,2.1,7.9   C12,31,18.4,31,21,31c2.6,0,9,0,10.4-0.9c1.4-0.8,2.1-4.5,2.1-8.1C33.5,18.5,32.8,14.7,31.4,13.9z M18.6,26.8v-9.6l7.2,4.8   L18.6,26.8z M33.6,22C33.6,22,33.6,22.1,33.6,22C33.6,22.1,33.6,22.1,33.6,22L33.6,22L33.6,22z"/>
</g>
<g>
	<path class="st6" d="M30.4,12.9C29,12,22.6,12,20,12c-2.6,0-9,0-10.4,0.9c-1.4,0.8-2.1,4.7-2.1,8.3h0v0h0c0.1,3.6,0.8,7.1,2.1,7.9   C11,30,17.4,30,20,30c2.6,0,9,0,10.4-0.9c1.4-0.8,2.1-4.5,2.1-8.1C32.5,17.5,31.8,13.7,30.4,12.9z M17.6,25.8v-9.6l7.2,4.8   L17.6,25.8z M32.6,21C32.6,21,32.6,21.1,32.6,21C32.6,21.1,32.6,21.1,32.6,21L32.6,21L32.6,21z"/>
</g>
</svg>